{"glyphs":{":":{"x_min":0,"x_max":369,"ha":369,"o":"m 92 397 q 92 436 119 463 q 146 490 184 490 q 222 490 250 463 q 277 435 277 397 q 277 359 250 332 q 223 305 184 305 q 146 305 119 332 q 92 359 92 397 z m 92 79 q 92 117 119 145 q 146 172 184 172 q 222 172 250 145 q 277 117 277 79 q 277 41 250 13 q 222 -14 184 -14 q 146 -14 119 13 q 92 41 92 79 z"},"$":{"x_min":0,"x_max":696,"ha":696,"o":"m 95 29 l 95 171 l 154 171 q 162 105 200 73 q 239 41 309 41 l 316 41 l 316 239 q 194 266 142 312 q 89 358 89 438 q 89 526 149 576 q 208 627 316 630 l 316 761 l 375 761 l 375 630 q 430 627 480 616 q 530 606 577 587 l 577 454 l 518 454 q 510 511 473 542 q 436 574 375 575 l 375 393 q 506 364 560 316 q 613 267 613 179 q 613 89 551 39 q 489 -11 375 -14 l 375 -146 l 316 -146 l 316 -14 q 262 -13 207 -2 q 152 8 95 29 z m 316 575 q 274 570 250 549 q 226 529 226 499 q 226 465 247 444 q 268 423 316 409 z m 375 41 q 424 46 450 68 q 475 89 475 125 q 475 161 451 185 q 428 208 375 223 z"},"?":{"x_min":0,"x_max":586,"ha":586,"o":"m 167 79 q 167 117 194 145 q 222 172 260 172 q 298 172 326 145 q 353 117 353 79 q 353 41 326 13 q 298 -14 260 -14 q 222 -14 194 13 q 167 41 167 79 z m 65 709 q 125 726 180 734 q 235 742 286 742 q 409 742 475 688 q 541 634 541 534 q 541 436 477 379 q 414 322 294 313 l 294 213 l 226 213 l 226 359 q 294 380 326 425 q 358 470 358 545 q 358 615 328 651 q 298 687 240 687 q 187 687 157 655 q 128 623 124 559 l 65 559 z"},"<":{"x_min":0,"x_max":838,"ha":838,"o":"m 732 478 l 254 313 l 732 149 l 732 32 l 106 259 l 106 369 l 732 595 z"},"'":{"x_min":0,"x_max":306,"ha":306,"o":"m 211 729 l 211 458 l 95 458 l 95 729 z"},"=":{"x_min":0,"x_max":838,"ha":838,"o":"m 106 258 l 732 258 l 732 147 l 106 147 z m 106 480 l 732 480 l 732 369 l 106 369 z"},"a":{"x_min":0,"x_max":648,"ha":648,"o":"m 551 319 l 551 59 l 625 59 l 625 0 l 378 0 l 378 66 q 344 25 302 5 q 260 -14 206 -14 q 126 -14 84 29 q 41 71 41 151 q 41 238 102 282 q 164 325 287 325 l 378 325 l 378 356 q 378 419 348 449 q 318 479 256 479 q 204 479 176 458 q 148 437 136 388 l 81 388 l 81 500 q 127 517 177 525 q 227 533 282 533 q 421 533 486 481 q 551 430 551 319 z m 378 163 l 378 267 l 313 267 q 265 267 239 241 q 213 214 213 165 q 213 116 232 91 q 250 67 289 67 q 329 67 354 93 q 378 120 378 163 z"},"L":{"x_min":0,"x_max":703,"ha":703,"o":"m 47 0 l 47 59 l 140 59 l 140 670 l 47 670 l 47 729 l 422 729 l 422 670 l 328 670 l 328 67 l 615 67 l 615 182 l 681 182 l 681 0 z"},"3":{"x_min":0,"x_max":696,"ha":696,"o":"m 86 708 q 150 725 211 734 q 271 742 329 742 q 461 742 531 695 q 602 648 602 560 q 602 494 562 453 q 521 412 443 398 q 538 383 585 333 q 632 283 632 197 q 632 95 551 40 q 470 -14 317 -14 q 259 -14 198 -4 q 137 5 70 25 l 70 185 l 129 185 q 134 116 172 79 q 210 43 278 43 q 352 43 393 84 q 433 125 433 201 q 433 280 391 323 q 349 366 271 366 l 239 366 l 239 425 l 264 425 q 336 425 372 458 q 408 491 408 557 q 408 619 374 652 q 340 685 277 685 q 219 685 186 654 q 152 622 145 562 l 86 562 z"},";":{"x_min":0,"x_max":369,"ha":369,"o":"m 92 397 q 92 436 119 463 q 146 490 184 490 q 222 490 250 463 q 277 435 277 397 q 277 359 250 332 q 223 305 184 305 q 146 305 119 332 q 92 359 92 397 z m 26 -92 q 77 -51 101 -1 q 125 50 125 117 l 125 160 l 264 160 q 264 50 219 -29 q 173 -108 80 -161 z"},"J":{"x_min":0,"x_max":473,"ha":473,"o":"m -73 -175 l -73 -60 l -10 -60 q -7 -106 12 -127 q 31 -149 68 -149 q 115 -149 134 -113 q 153 -76 153 24 l 153 670 l 47 670 l 47 729 l 435 729 l 435 670 l 342 670 l 342 20 q 342 -99 282 -153 q 222 -208 92 -208 q 51 -208 10 -200 q -31 -191 -73 -175 z"},"V":{"x_min":0,"x_max":776,"ha":776,"o":"m 790 729 l 790 670 l 729 670 l 454 0 l 338 0 l 63 670 l -6 670 l -6 729 l 336 729 l 336 670 l 265 670 l 462 187 l 660 670 l 573 670 l 573 729 z"},"\"":{"x_min":0,"x_max":521,"ha":521,"o":"m 211 729 l 211 458 l 95 458 l 95 729 z m 426 729 l 426 458 l 310 458 l 310 729 z"},"7":{"x_min":0,"x_max":696,"ha":696,"o":"m 613 605 l 312 0 l 213 0 l 506 591 l 146 591 l 146 492 l 79 492 l 79 729 l 613 729 z"},"S":{"x_min":0,"x_max":722,"ha":722,"o":"m 77 35 l 77 208 l 139 208 q 153 126 206 85 q 259 45 352 45 q 428 45 467 74 q 507 103 507 158 q 507 202 480 227 q 453 251 369 272 l 260 299 q 153 326 109 375 q 66 423 66 513 q 66 622 138 682 q 210 742 340 742 q 404 742 473 731 q 542 721 616 699 l 616 538 l 554 538 q 540 613 492 648 q 444 683 356 683 q 284 683 247 658 q 210 633 210 583 q 210 538 235 514 q 261 490 360 465 l 469 438 q 571 413 616 359 q 662 305 662 211 q 662 101 586 43 q 510 -14 362 -14 q 291 -14 220 -2 q 150 10 77 35 z"},"}":{"x_min":0,"x_max":643,"ha":643,"o":"m 91 -104 l 140 -104 q 194 -104 215 -81 q 235 -58 235 8 l 235 140 q 235 217 259 250 q 283 282 347 299 q 284 313 259 347 q 235 380 235 457 l 235 589 q 235 655 215 678 q 194 701 140 701 l 91 701 l 91 760 l 162 760 q 277 760 317 748 q 357 736 382 706 q 396 688 402 661 q 408 635 408 580 l 408 458 q 408 384 434 356 q 460 328 529 328 l 559 328 l 559 269 l 529 269 q 460 269 434 241 q 408 213 408 139 l 408 17 q 408 -38 402 -64 q 396 -91 382 -109 q 357 -139 317 -151 q 277 -163 162 -163 l 91 -163 z"},"Z":{"x_min":0,"x_max":730,"ha":730,"o":"m 37 0 l 37 69 l 472 662 l 123 662 l 123 553 l 56 553 l 56 729 l 689 729 l 689 660 l 259 67 l 627 67 l 627 169 l 694 169 l 694 0 z"},"x":{"x_min":0,"x_max":596,"ha":596,"o":"m 351 331 l 443 460 l 379 460 l 379 519 l 581 519 l 581 460 l 512 460 l 380 275 l 534 59 l 603 59 l 603 0 l 273 0 l 273 59 l 340 59 l 242 196 l 144 59 l 214 59 l 214 0 l 0 0 l 0 59 l 74 59 l 212 253 l 63 460 l 5 460 l 5 519 l 322 519 l 322 460 l 259 460 z"},")":{"x_min":0,"x_max":473,"ha":473,"o":"m 51 -156 l 51 -97 q 128 -50 162 42 q 196 134 196 302 q 196 470 162 562 q 128 654 51 701 l 51 760 q 217 695 298 583 q 378 471 378 302 q 378 133 297 19 q 215 -95 51 -156 z"},"&":{"x_min":0,"x_max":903,"ha":903,"o":"m 885 0 l 651 0 l 589 64 q 540 25 481 5 q 422 -14 352 -14 q 206 -14 123 48 q 40 111 40 220 q 40 300 82 356 q 125 413 215 453 q 190 486 177 516 q 165 545 165 573 q 165 653 232 698 q 299 742 421 742 q 457 742 505 736 q 553 730 614 719 l 614 567 l 551 567 q 542 627 514 655 q 485 683 433 683 q 384 683 355 660 q 327 636 327 596 q 327 551 415 462 q 424 453 429 448 l 654 213 q 683 246 700 290 q 716 333 721 388 l 632 388 l 632 447 l 876 447 l 876 388 l 790 388 q 782 317 760 262 q 737 207 701 164 l 802 59 l 885 59 z m 543 112 l 267 399 q 240 366 227 329 q 213 292 213 252 q 213 169 265 116 q 317 63 397 63 q 435 63 471 75 q 507 87 543 112 z"},"_":{"x_min":0,"x_max":500,"ha":500,"o":"m 500 -143 l 500 -236 l 0 -236 l 0 -143 z"},"v":{"x_min":0,"x_max":581,"ha":581,"o":"m 223 0 l 39 460 l -18 460 l -18 519 l 280 519 l 280 460 l 217 460 l 348 132 l 479 460 l 411 460 l 411 519 l 606 519 l 606 460 l 546 460 l 362 0 z"},"O":{"x_min":0,"x_max":871,"ha":871,"o":"m 435 45 q 528 45 574 124 q 619 202 619 364 q 619 526 574 604 q 528 683 435 683 q 342 683 297 604 q 251 524 251 364 q 251 204 297 124 q 342 45 435 45 z m 435 -14 q 251 -14 146 86 q 42 187 42 364 q 42 541 147 641 q 251 742 435 742 q 619 742 724 642 q 828 541 828 364 q 828 187 723 86 q 619 -14 435 -14 z"},"(":{"x_min":0,"x_max":473,"ha":473,"o":"m 421 -156 q 256 -95 175 19 q 94 133 94 302 q 94 471 174 583 q 254 695 421 760 l 421 701 q 344 654 310 562 q 276 470 276 302 q 276 134 310 42 q 344 -50 421 -97 z"},"C":{"x_min":0,"x_max":796,"ha":796,"o":"m 745 208 q 716 95 642 41 q 567 -14 441 -14 q 256 -14 149 88 q 42 189 42 364 q 42 539 149 640 q 256 742 441 742 q 506 742 576 727 q 646 711 725 679 l 725 500 l 663 500 q 644 592 594 637 q 543 683 461 683 q 354 683 303 605 q 251 526 251 364 q 251 201 303 123 q 354 45 462 45 q 535 45 581 85 q 627 126 648 208 z"},"W":{"x_min":0,"x_max":1123,"ha":1123,"o":"m 852 0 l 726 0 l 561 531 l 396 0 l 270 0 l 62 670 l -9 670 l -9 729 l 337 729 l 337 670 l 259 670 l 398 222 l 555 729 l 694 729 l 854 214 l 996 670 l 909 670 l 909 729 l 1135 729 l 1135 670 l 1060 670 z"},"A":{"x_min":0,"x_max":776,"ha":776,"o":"m -8 0 l -8 59 l 52 59 l 326 729 l 443 729 l 718 59 l 787 59 l 787 0 l 446 0 l 446 59 l 517 59 l 457 208 l 183 208 l 122 59 l 209 59 l 209 0 z m 207 267 l 433 267 l 321 546 z"},"f":{"x_min":0,"x_max":430,"ha":430,"o":"m 484 630 l 429 630 q 425 668 407 687 q 389 705 355 705 q 316 705 298 677 q 281 649 281 586 l 281 519 l 411 519 l 411 460 l 281 460 l 281 59 l 381 59 l 381 0 l 34 0 l 34 59 l 108 59 l 108 460 l 31 460 l 31 519 l 108 519 l 108 584 q 108 670 163 715 q 218 760 325 760 q 367 760 406 755 q 446 750 484 741 z"},"Q":{"x_min":0,"x_max":871,"ha":871,"o":"m 432 -14 q 248 -11 145 88 q 42 188 42 364 q 42 541 147 641 q 251 742 435 742 q 619 742 724 642 q 828 541 828 364 q 828 208 748 112 q 667 15 519 -8 q 545 -36 582 -48 q 619 -60 678 -60 l 703 -60 l 703 -180 l 689 -180 q 596 -180 534 -140 q 472 -100 432 -14 z m 435 45 q 528 45 574 124 q 619 202 619 364 q 619 526 574 604 q 528 683 435 683 q 342 683 297 604 q 251 524 251 364 q 251 204 297 124 q 342 45 435 45 z"},"w":{"x_min":0,"x_max":861,"ha":861,"o":"m 539 519 l 657 173 l 755 460 l 687 460 l 687 519 l 881 519 l 881 460 l 820 460 l 663 0 l 544 0 l 434 325 l 323 0 l 205 0 l 48 460 l -9 460 l -9 519 l 285 519 l 285 460 l 224 460 l 320 179 l 436 519 z"},"-":{"x_min":0,"x_max":415,"ha":415,"o":"m 54 334 l 361 334 l 361 202 l 54 202 z"},"E":{"x_min":0,"x_max":762,"ha":762,"o":"m 47 0 l 47 59 l 140 59 l 140 670 l 47 670 l 47 729 l 702 729 l 702 557 l 635 557 l 635 662 l 328 662 l 328 428 l 519 428 l 519 521 l 586 521 l 586 269 l 519 269 l 519 362 l 328 362 l 328 67 l 644 67 l 644 172 l 711 172 l 711 0 z"},"s":{"x_min":0,"x_max":563,"ha":563,"o":"m 47 15 l 47 160 l 102 160 q 109 102 146 72 q 182 41 245 41 q 298 41 326 59 q 354 78 354 112 q 354 143 336 160 q 318 177 267 190 l 196 208 q 115 228 79 265 q 43 303 43 366 q 43 451 102 492 q 160 533 282 533 q 328 533 380 526 q 432 518 495 502 l 495 371 l 440 371 q 436 424 402 451 q 369 478 306 478 q 253 478 226 461 q 199 444 199 412 q 199 386 215 371 q 230 355 271 345 l 342 327 q 444 301 483 263 q 522 225 522 157 q 522 69 459 28 q 396 -14 264 -14 q 216 -14 162 -7 q 107 0 47 15 z"},">":{"x_min":0,"x_max":838,"ha":838,"o":"m 106 478 l 106 595 l 732 369 l 732 259 l 106 32 l 106 149 l 584 313 z"},"l":{"x_min":0,"x_max":380,"ha":380,"o":"m 281 59 l 355 59 l 355 0 l 34 0 l 34 59 l 108 59 l 108 701 l 34 701 l 34 760 l 281 760 z"},"8":{"x_min":0,"x_max":696,"ha":696,"o":"m 465 388 q 552 374 597 324 q 642 274 642 194 q 642 93 566 40 q 490 -14 347 -14 q 204 -14 128 40 q 52 93 52 194 q 52 274 97 324 q 143 374 229 388 q 152 406 114 447 q 76 488 76 552 q 76 645 146 693 q 215 742 347 742 q 479 742 549 693 q 618 645 618 552 q 618 488 580 447 q 542 406 465 388 z m 429 550 q 429 627 411 656 q 392 685 347 685 q 302 685 283 656 q 265 627 265 550 q 265 473 283 445 q 302 416 347 416 q 393 416 411 445 q 429 473 429 550 z m 448 202 q 448 292 426 325 q 403 359 347 359 q 291 359 269 325 q 246 292 246 202 q 246 112 269 77 q 292 43 347 43 q 402 43 425 77 q 448 112 448 202 z"},"\\":{"x_min":0,"x_max":365,"ha":365,"o":"m 108 729 l 365 -93 l 257 -93 l 0 729 z"},"e":{"x_min":0,"x_max":636,"ha":636,"o":"m 401 293 q 401 396 382 437 q 363 478 317 478 q 272 478 253 438 q 234 397 234 302 l 234 293 z m 591 235 l 234 235 l 234 231 q 234 130 264 86 q 294 41 362 41 q 418 41 453 71 q 487 101 497 157 l 578 157 q 557 69 495 27 q 432 -14 320 -14 q 185 -14 113 57 q 41 128 41 260 q 41 389 115 461 q 188 533 320 533 q 449 533 518 457 q 586 381 591 235 z"},"b":{"x_min":0,"x_max":699,"ha":699,"o":"m 97 59 l 97 701 l 23 701 l 23 760 l 270 760 l 270 453 q 292 494 329 513 q 366 533 421 533 q 532 533 595 460 q 659 387 659 260 q 659 132 595 59 q 532 -14 421 -14 q 366 -14 329 6 q 292 25 270 66 l 270 0 l 23 0 l 23 59 z m 270 234 q 270 143 293 103 q 316 62 368 62 q 421 62 443 105 q 465 148 465 260 q 465 372 443 414 q 421 457 368 457 q 316 457 293 417 q 270 376 270 285 z"},"%":{"x_min":0,"x_max":950,"ha":950,"o":"m 216 693 q 185 693 171 659 q 157 625 157 544 q 157 462 171 428 q 185 394 216 394 q 248 394 261 428 q 275 462 275 544 q 275 625 261 659 q 248 693 216 693 z m 216 742 q 309 742 359 691 q 408 640 408 544 q 408 448 359 396 q 309 345 216 345 q 123 345 73 396 q 24 448 24 544 q 24 640 73 691 q 123 742 216 742 z m 661 742 l 745 742 l 289 -14 l 205 -14 z m 734 383 q 827 383 876 332 q 926 281 926 185 q 926 89 876 37 q 827 -14 734 -14 q 641 -14 592 37 q 542 89 542 185 q 542 281 592 332 q 641 383 734 383 z m 734 334 q 702 334 688 300 q 675 266 675 185 q 675 104 689 69 q 703 35 734 35 q 766 35 779 69 q 793 104 793 185 q 793 266 779 300 q 766 334 734 334 z"},"m":{"x_min":0,"x_max":1058,"ha":1058,"o":"m 607 434 q 643 486 685 510 q 727 533 783 533 q 873 533 917 483 q 961 432 961 330 l 961 59 l 1035 59 l 1035 0 l 726 0 l 726 59 l 788 59 l 788 304 q 788 401 773 427 q 758 452 718 452 q 672 452 646 417 q 621 381 621 316 l 621 59 l 683 59 l 683 0 l 386 0 l 386 59 l 448 59 l 448 304 q 448 401 433 427 q 418 452 378 452 q 332 452 306 417 q 281 381 281 316 l 281 59 l 343 59 l 343 0 l 34 0 l 34 59 l 108 59 l 108 460 l 34 460 l 34 519 l 281 519 l 281 446 q 311 491 350 512 q 389 533 443 533 q 506 533 546 509 q 585 485 607 434 z"},"#":{"x_min":0,"x_max":838,"ha":838,"o":"m 500 426 l 371 426 l 337 292 l 466 292 z m 445 718 l 398 530 l 527 530 l 574 718 l 682 718 l 635 530 l 770 530 l 770 426 l 609 426 l 575 292 l 714 292 l 714 187 l 550 187 l 503 0 l 395 0 l 442 187 l 313 187 l 266 0 l 157 0 l 204 187 l 68 187 l 68 292 l 228 292 l 262 426 l 124 426 l 124 530 l 289 530 l 336 718 z"},",":{"x_min":0,"x_max":348,"ha":348,"o":"m 13 -96 q 64 -55 88 -4 q 112 46 112 114 l 112 156 l 251 156 l 251 152 q 251 44 206 -34 q 161 -112 67 -165 z"},"n":{"x_min":0,"x_max":727,"ha":727,"o":"m 34 0 l 34 59 l 108 59 l 108 460 l 34 460 l 34 519 l 281 519 l 281 446 q 312 492 352 513 q 392 533 453 533 q 541 533 585 482 q 630 430 630 330 l 630 59 l 704 59 l 704 0 l 394 0 l 394 59 l 457 59 l 457 335 q 457 401 440 427 q 423 452 382 452 q 330 452 305 414 q 281 375 281 292 l 281 59 l 344 59 l 344 0 z"},"h":{"x_min":0,"x_max":727,"ha":727,"o":"m 34 0 l 34 59 l 108 59 l 108 701 l 31 701 l 31 760 l 281 760 l 281 446 q 312 492 352 513 q 392 533 453 533 q 541 533 585 482 q 630 430 630 330 l 630 59 l 704 59 l 704 0 l 394 0 l 394 59 l 457 59 l 457 335 q 457 401 440 427 q 423 452 382 452 q 330 452 305 414 q 281 375 281 292 l 281 59 l 344 59 l 344 0 z"},"z":{"x_min":0,"x_max":568,"ha":568,"o":"m 35 0 l 35 59 l 333 462 l 109 462 l 109 373 l 51 373 l 51 519 l 534 519 l 534 461 l 236 58 l 476 58 l 476 152 l 534 152 l 534 0 z"},"B":{"x_min":0,"x_max":845,"ha":845,"o":"m 47 0 l 47 59 l 140 59 l 140 670 l 47 670 l 47 729 l 479 729 q 612 729 679 684 q 746 639 746 549 q 746 484 700 446 q 654 408 563 398 q 673 388 731 339 q 790 291 790 211 q 790 103 708 51 q 626 0 452 0 z m 328 425 l 392 425 q 476 425 517 455 q 557 486 557 549 q 557 612 518 641 q 479 670 392 670 l 328 670 z m 328 59 l 398 59 q 491 59 536 96 q 581 133 581 211 q 581 289 536 328 q 490 366 398 366 l 328 366 z"},"K":{"x_min":0,"x_max":869,"ha":869,"o":"m 47 0 l 47 59 l 140 59 l 140 670 l 47 670 l 47 729 l 422 729 l 422 670 l 328 670 l 328 404 l 637 670 l 559 670 l 559 729 l 831 729 l 831 670 l 734 670 l 472 445 l 828 59 l 900 59 l 900 0 l 653 0 l 328 354 l 328 59 l 422 59 l 422 0 z"},"R":{"x_min":0,"x_max":831,"ha":831,"o":"m 531 356 q 574 350 604 327 q 634 305 656 262 l 762 59 l 837 59 l 837 0 l 597 0 l 481 220 q 447 289 424 307 q 400 326 358 326 l 328 326 l 328 59 l 422 59 l 422 0 l 47 0 l 47 59 l 140 59 l 140 670 l 47 670 l 47 729 l 463 729 q 590 729 659 678 q 728 627 728 533 q 728 457 679 413 q 630 369 531 356 z m 328 385 l 392 385 q 460 385 497 422 q 534 459 534 528 q 534 597 497 633 q 460 670 392 670 l 328 670 z"},"T":{"x_min":0,"x_max":744,"ha":744,"o":"m 181 0 l 181 59 l 278 59 l 278 662 l 78 662 l 78 547 l 11 547 l 11 729 l 734 729 l 734 547 l 668 547 l 668 662 l 467 662 l 467 59 l 564 59 l 564 0 z"},"P":{"x_min":0,"x_max":752,"ha":752,"o":"m 47 0 l 47 59 l 140 59 l 140 670 l 47 670 l 47 729 l 462 729 q 583 729 655 671 q 727 613 727 516 q 727 418 655 360 q 583 302 462 302 l 328 302 l 328 59 l 446 59 l 446 0 z m 328 361 l 383 361 q 446 361 484 403 q 522 445 522 516 q 522 586 484 628 q 447 670 383 670 l 328 670 z"},"|":{"x_min":0,"x_max":364,"ha":364,"o":"m 234 764 l 234 -236 l 129 -236 l 129 764 z"},"t":{"x_min":0,"x_max":462,"ha":462,"o":"m 99 460 l 24 460 l 24 519 l 99 519 l 99 680 l 272 680 l 272 519 l 416 519 l 416 460 l 272 460 l 272 142 q 272 74 283 58 q 293 41 322 41 q 353 41 368 62 q 383 83 384 127 l 457 127 q 453 49 414 17 q 376 -14 282 -14 q 175 -14 137 19 q 99 53 99 142 z"},"M":{"x_min":0,"x_max":1107,"ha":1107,"o":"m 42 0 l 42 59 l 135 59 l 135 670 l 42 670 l 42 729 l 343 729 l 551 261 l 760 729 l 1060 729 l 1060 670 l 967 670 l 967 59 l 1060 59 l 1060 0 l 685 0 l 685 59 l 778 59 l 778 615 l 552 107 l 428 107 l 203 615 l 203 59 l 296 59 l 296 0 z"},"g":{"x_min":0,"x_max":699,"ha":699,"o":"m 602 460 l 602 7 q 602 -103 524 -162 q 446 -222 304 -222 q 252 -222 199 -214 q 146 -206 90 -190 l 90 -66 l 145 -66 q 152 -117 186 -142 q 220 -167 283 -167 q 363 -167 396 -129 q 429 -90 429 7 l 429 66 q 407 25 370 6 q 333 -14 278 -14 q 167 -14 104 59 q 41 132 41 260 q 41 388 104 460 q 167 533 278 533 q 333 533 370 513 q 407 494 429 453 l 429 519 l 676 519 l 676 460 z m 429 285 q 429 376 406 417 q 382 457 331 457 q 277 457 256 414 q 234 372 234 260 q 234 148 256 105 q 278 62 331 62 q 382 62 406 103 q 429 143 429 234 z"},"j":{"x_min":0,"x_max":362,"ha":362,"o":"m 87 666 q 87 706 114 733 q 141 760 181 760 q 219 760 247 732 q 274 705 274 666 q 274 627 247 600 q 220 573 181 573 q 142 573 114 600 q 87 627 87 666 z m 107 460 l 33 460 l 33 519 l 280 519 l 280 -61 q 280 -141 223 -181 q 167 -222 57 -222 q 28 -222 -5 -217 q -39 -212 -74 -203 l -74 -93 l -19 -93 q -18 -132 -4 -150 q 11 -167 43 -167 q 79 -167 93 -144 q 107 -121 107 -61 z"},"i":{"x_min":0,"x_max":380,"ha":380,"o":"m 92 666 q 92 706 119 733 q 146 760 186 760 q 225 760 252 733 q 279 706 279 666 q 279 627 252 600 q 225 573 186 573 q 146 573 119 600 q 92 627 92 666 z m 281 59 l 355 59 l 355 0 l 34 0 l 34 59 l 108 59 l 108 460 l 34 460 l 34 519 l 281 519 z"},"y":{"x_min":0,"x_max":581,"ha":581,"o":"m 312 -117 q 289 -174 255 -198 q 222 -222 166 -222 q 142 -222 113 -217 q 83 -211 49 -201 l 49 -93 l 104 -93 q 105 -131 122 -149 q 138 -167 171 -167 q 203 -167 222 -150 q 242 -132 261 -84 l 269 -66 l 43 460 l -13 460 l -13 519 l 286 519 l 286 460 l 224 460 l 356 153 l 479 460 l 410 460 l 410 519 l 605 519 l 605 460 l 542 460 z"},"@":{"x_min":0,"x_max":1000,"ha":1000,"o":"m 621 246 l 621 283 q 621 346 591 385 q 561 423 511 423 q 463 423 433 380 q 404 337 404 265 q 404 193 433 150 q 463 107 511 107 q 561 107 591 145 q 621 183 621 246 z m 621 117 q 600 82 565 63 q 530 45 486 45 q 393 45 339 104 q 286 162 286 265 q 286 368 339 427 q 393 485 486 485 q 530 485 565 466 q 600 448 621 413 l 621 474 l 728 474 l 728 112 q 798 131 836 188 q 874 245 874 331 q 874 401 847 458 q 820 515 765 562 q 720 600 660 621 q 599 641 531 641 q 467 641 412 624 q 357 607 311 573 q 242 521 204 441 q 167 361 167 265 q 167 189 191 122 q 214 55 258 6 q 310 -52 378 -82 q 446 -112 526 -112 q 585 -112 641 -95 q 697 -79 747 -46 l 775 -92 q 712 -133 645 -153 q 577 -174 507 -174 q 412 -174 333 -143 q 254 -112 192 -51 q 130 10 98 91 q 66 171 66 265 q 66 359 98 439 q 130 520 192 581 q 254 643 334 673 q 414 703 514 703 q 601 703 672 679 q 744 656 800 608 q 865 554 897 484 q 929 415 929 330 q 929 195 852 120 q 775 45 636 45 l 621 45 z"},".":{"x_min":0,"x_max":348,"ha":348,"o":"m 81 79 q 81 117 108 145 q 136 172 174 172 q 212 172 240 145 q 267 117 267 79 q 267 41 240 13 q 212 -14 174 -14 q 136 -14 108 13 q 81 41 81 79 z"},"p":{"x_min":0,"x_max":699,"ha":699,"o":"m 270 285 l 270 234 q 270 143 293 103 q 316 62 368 62 q 421 62 443 105 q 465 148 465 260 q 465 372 443 414 q 421 457 368 457 q 316 457 293 417 q 270 376 270 285 z m 97 460 l 23 460 l 23 519 l 270 519 l 270 453 q 292 494 329 513 q 366 533 421 533 q 532 533 595 460 q 659 387 659 260 q 659 132 595 59 q 532 -14 421 -14 q 366 -14 329 6 q 292 25 270 66 l 270 -149 l 350 -149 l 350 -208 l 23 -208 l 23 -149 l 97 -149 z"},"X":{"x_min":0,"x_max":776,"ha":776,"o":"m 339 281 l 187 59 l 277 59 l 277 0 l 18 0 l 18 59 l 108 59 l 300 338 l 72 670 l 5 670 l 5 729 l 367 729 l 367 670 l 287 670 l 428 465 l 568 670 l 483 670 l 483 729 l 737 729 l 737 670 l 647 670 l 467 408 l 706 59 l 775 59 l 775 0 l 411 0 l 411 59 l 492 59 z"},"*":{"x_min":0,"x_max":523,"ha":523,"o":"m 501 592 l 325 510 l 501 427 l 453 351 l 293 468 l 306 278 l 217 278 l 230 468 l 70 351 l 22 427 l 198 510 l 22 592 l 70 669 l 230 551 l 217 742 l 306 742 l 293 551 l 453 669 z"},"Y":{"x_min":0,"x_max":714,"ha":714,"o":"m 172 0 l 172 59 l 270 59 l 270 302 l 53 670 l -9 670 l -9 729 l 341 729 l 341 670 l 260 670 l 424 392 l 587 670 l 514 670 l 514 729 l 723 729 l 723 670 l 661 670 l 459 327 l 459 59 l 557 59 l 557 0 z"},"c":{"x_min":0,"x_max":609,"ha":609,"o":"m 564 162 q 545 73 488 30 q 431 -14 332 -14 q 193 -14 117 58 q 41 129 41 260 q 41 389 116 461 q 191 533 325 533 q 379 533 435 523 q 490 513 547 492 l 547 348 l 492 348 q 484 414 454 446 q 423 478 367 478 q 295 478 264 429 q 234 380 234 260 q 234 142 264 92 q 293 41 361 41 q 413 41 445 72 q 476 104 483 162 z"},"!":{"x_min":0,"x_max":439,"ha":439,"o":"m 127 79 q 127 117 154 145 q 181 172 219 172 q 257 172 285 145 q 312 117 312 79 q 312 41 285 13 q 257 -14 219 -14 q 181 -14 154 13 q 127 41 127 79 z m 128 729 l 311 729 l 253 318 l 253 225 l 185 225 l 185 318 z"},"/":{"x_min":0,"x_max":365,"ha":365,"o":"m 257 729 l 365 729 l 108 -93 l 0 -93 z"},"[":{"x_min":0,"x_max":473,"ha":473,"o":"m 125 760 l 402 760 l 402 701 l 298 701 l 298 -73 l 402 -73 l 402 -132 l 125 -132 z"},"6":{"x_min":0,"x_max":696,"ha":696,"o":"m 246 432 q 278 458 317 470 q 356 483 403 483 q 515 483 578 417 q 642 352 642 238 q 642 117 570 52 q 499 -14 366 -14 q 217 -14 140 76 q 63 166 63 341 q 63 540 148 641 q 234 742 402 742 q 446 742 496 735 q 546 728 604 713 l 604 584 l 545 584 q 533 634 499 659 q 465 685 411 685 q 324 685 285 625 q 247 566 246 432 z m 355 43 q 405 43 427 86 q 448 128 448 234 q 448 339 427 382 q 405 425 355 425 q 305 425 283 382 q 262 339 262 234 q 262 128 283 86 q 305 43 355 43 z"},"r":{"x_min":0,"x_max":527,"ha":527,"o":"m 537 525 l 537 370 l 482 370 q 479 412 459 432 q 440 452 403 452 q 346 452 313 402 q 281 353 281 264 l 281 59 l 375 59 l 375 0 l 34 0 l 34 59 l 108 59 l 108 460 l 29 460 l 29 519 l 281 519 l 281 427 q 306 481 348 507 q 390 533 450 533 q 465 533 487 531 q 509 529 537 525 z"},"2":{"x_min":0,"x_max":696,"ha":696,"o":"m 132 549 l 73 549 l 73 706 q 133 724 191 733 q 250 742 309 742 q 448 742 526 685 q 604 628 604 527 q 604 455 561 397 q 518 340 397 261 l 194 128 l 539 128 l 539 214 l 606 214 l 606 0 l 67 0 l 67 119 l 175 194 q 313 289 359 356 q 405 423 405 512 q 405 597 370 641 q 335 685 268 685 q 210 685 176 650 q 141 615 132 549 z"},"{":{"x_min":0,"x_max":643,"ha":643,"o":"m 553 -104 l 553 -163 l 481 -163 q 366 -163 326 -151 q 286 -139 261 -109 q 247 -91 241 -64 q 235 -38 235 17 l 235 139 q 235 213 209 241 q 183 269 114 269 l 84 269 l 84 328 l 114 328 q 183 328 209 356 q 235 384 235 458 l 235 580 q 235 635 241 661 q 247 688 261 706 q 286 736 326 748 q 366 760 481 760 l 553 760 l 553 701 l 503 701 q 448 701 428 678 q 408 655 408 589 l 408 457 q 408 379 384 346 q 360 313 297 299 q 361 282 385 250 q 408 218 408 140 l 408 8 q 408 -58 428 -81 q 448 -104 503 -104 z"},"9":{"x_min":0,"x_max":696,"ha":696,"o":"m 341 685 q 291 685 269 642 q 248 600 248 494 q 248 389 269 346 q 291 303 341 303 q 391 303 413 346 q 434 389 434 494 q 434 600 413 642 q 391 685 341 685 z m 450 297 q 417 271 378 258 q 339 245 293 245 q 182 245 118 310 q 54 375 54 490 q 54 611 125 677 q 197 742 329 742 q 479 742 556 652 q 633 562 633 387 q 633 188 547 87 q 462 -14 294 -14 q 250 -14 200 -7 q 149 0 92 15 l 92 144 l 151 144 q 163 94 197 69 q 231 43 285 43 q 371 43 410 103 q 449 163 450 297 z"}," ":{"x_min":0,"x_max":348,"ha":348,"o":""},"I":{"x_min":0,"x_max":468,"ha":468,"o":"m 47 0 l 47 59 l 140 59 l 140 670 l 47 670 l 47 729 l 422 729 l 422 670 l 328 670 l 328 59 l 422 59 l 422 0 z"},"H":{"x_min":0,"x_max":945,"ha":945,"o":"m 47 0 l 47 59 l 140 59 l 140 670 l 47 670 l 47 729 l 422 729 l 422 670 l 328 670 l 328 425 l 618 425 l 618 670 l 525 670 l 525 729 l 900 729 l 900 670 l 806 670 l 806 59 l 900 59 l 900 0 l 525 0 l 525 59 l 618 59 l 618 358 l 328 358 l 328 59 l 422 59 l 422 0 z"},"4":{"x_min":0,"x_max":696,"ha":696,"o":"m 638 0 l 237 0 l 237 59 l 345 59 l 345 192 l 41 192 l 41 248 l 346 742 l 530 742 l 530 255 l 655 255 l 655 192 l 530 192 l 530 59 l 638 59 z m 345 255 l 345 609 l 128 255 z"},"~":{"x_min":0,"x_max":838,"ha":838,"o":"m 732 406 l 732 305 q 687 263 641 243 q 595 223 546 223 q 500 223 425 251 q 417 254 413 256 q 410 257 403 260 q 319 292 272 292 q 234 292 194 274 q 153 257 106 221 l 106 322 q 153 364 198 384 q 243 404 292 404 q 338 404 412 376 q 421 373 425 371 l 432 368 q 517 335 566 335 q 604 335 644 353 q 685 370 732 406 z"},"D":{"x_min":0,"x_max":867,"ha":867,"o":"m 328 59 l 396 59 q 510 59 563 132 q 616 206 616 365 q 616 524 563 597 q 511 670 396 670 l 328 670 z m 47 0 l 47 59 l 140 59 l 140 670 l 47 670 l 47 729 l 421 729 q 617 729 721 635 q 825 542 825 365 q 825 188 721 94 q 617 0 421 0 z"},"^":{"x_min":0,"x_max":838,"ha":838,"o":"m 475 729 l 737 457 l 633 457 l 419 611 l 205 457 l 101 457 l 366 729 z"},"0":{"x_min":0,"x_max":696,"ha":696,"o":"m 348 43 q 407 43 428 96 q 450 149 450 364 q 450 577 428 631 q 407 685 348 685 q 290 685 268 632 q 246 579 246 364 q 246 149 268 96 q 290 43 348 43 z m 348 -14 q 202 -14 125 83 q 47 181 47 364 q 47 547 125 645 q 202 742 348 742 q 494 742 571 645 q 649 547 649 364 q 649 181 571 83 q 494 -14 348 -14 z"},"F":{"x_min":0,"x_max":710,"ha":710,"o":"m 47 0 l 47 59 l 140 59 l 140 670 l 47 670 l 47 729 l 697 729 l 697 557 l 630 557 l 630 662 l 329 662 l 329 428 l 514 428 l 514 521 l 581 521 l 581 269 l 514 269 l 514 362 l 329 362 l 329 59 l 444 59 l 444 0 z"},"`":{"x_min":0,"x_max":500,"ha":500,"o":"m 205 800 l 331 616 l 251 616 l 69 800 z"},"k":{"x_min":0,"x_max":693,"ha":693,"o":"m 346 0 l 34 0 l 34 59 l 108 59 l 108 701 l 34 701 l 34 760 l 281 760 l 281 272 l 490 460 l 428 460 l 428 519 l 665 519 l 665 460 l 569 460 l 435 340 l 654 59 l 710 59 l 710 0 l 412 0 l 412 59 l 473 59 l 329 244 l 281 201 l 281 59 l 346 59 z"},"u":{"x_min":0,"x_max":727,"ha":727,"o":"m 619 519 l 619 59 l 693 59 l 693 0 l 446 0 l 446 73 q 415 27 375 6 q 335 -14 274 -14 q 187 -14 142 37 q 97 89 97 189 l 97 460 l 23 460 l 23 519 l 270 519 l 270 216 q 270 119 286 93 q 302 67 345 67 q 397 67 422 105 q 446 144 446 228 l 446 460 l 383 460 l 383 519 z"},"]":{"x_min":0,"x_max":473,"ha":473,"o":"m 348 760 l 348 -132 l 71 -132 l 71 -73 l 175 -73 l 175 701 l 71 701 l 71 760 z"},"U":{"x_min":0,"x_max":872,"ha":872,"o":"m 127 670 l 34 670 l 34 729 l 409 729 l 409 670 l 316 670 l 316 305 q 316 169 358 115 q 401 60 504 60 q 604 60 647 115 q 689 170 689 305 l 689 670 l 596 670 l 596 729 l 850 729 l 850 670 l 757 670 l 757 295 q 757 128 685 57 q 612 -14 442 -14 q 272 -14 200 58 q 127 129 127 296 z"},"o":{"x_min":0,"x_max":667,"ha":667,"o":"m 334 41 q 389 41 411 88 q 433 135 433 260 q 433 385 411 431 q 389 478 334 478 q 279 478 256 431 q 234 384 234 260 q 234 136 256 88 q 279 41 334 41 z m 334 -14 q 197 -14 119 59 q 41 132 41 260 q 41 388 119 461 q 197 533 334 533 q 472 533 549 461 q 627 388 627 260 q 627 132 549 59 q 471 -14 334 -14 z"},"N":{"x_min":0,"x_max":914,"ha":914,"o":"m 44 0 l 44 59 l 137 59 l 137 670 l 44 670 l 44 729 l 272 729 l 712 213 l 712 670 l 619 670 l 619 729 l 874 729 l 874 670 l 781 670 l 781 0 l 653 0 l 206 527 l 206 59 l 299 59 l 299 0 z"},"+":{"x_min":0,"x_max":838,"ha":838,"o":"m 475 627 l 475 370 l 732 370 l 732 258 l 475 258 l 475 1 l 363 1 l 363 258 l 106 258 l 106 370 l 363 370 l 363 627 z"},"G":{"x_min":0,"x_max":854,"ha":854,"o":"m 688 500 q 666 597 615 640 q 563 683 470 683 q 357 683 304 606 q 251 529 251 364 q 251 200 302 122 q 353 45 460 45 q 501 45 536 54 q 571 63 600 82 l 600 282 l 512 282 l 512 341 l 775 341 l 775 61 q 693 23 611 4 q 529 -14 444 -14 q 256 -14 149 87 q 42 188 42 364 q 42 540 149 641 q 256 742 444 742 q 522 742 598 727 q 673 711 750 679 l 750 500 z"},"q":{"x_min":0,"x_max":699,"ha":699,"o":"m 602 460 l 602 -149 l 676 -149 l 676 -208 l 349 -208 l 349 -149 l 429 -149 l 429 66 q 407 25 370 6 q 333 -14 278 -14 q 167 -14 104 59 q 41 132 41 260 q 41 388 104 460 q 167 533 278 533 q 333 533 370 513 q 407 494 429 453 l 429 519 l 676 519 l 676 460 z m 429 285 q 429 376 406 417 q 382 457 331 457 q 277 457 256 414 q 234 372 234 260 q 234 148 256 105 q 278 62 331 62 q 382 62 406 103 q 429 143 429 234 z"},"d":{"x_min":0,"x_max":699,"ha":699,"o":"m 429 234 l 429 285 q 429 376 406 417 q 382 457 331 457 q 277 457 256 414 q 234 372 234 260 q 234 148 256 105 q 278 62 331 62 q 382 62 406 103 q 429 143 429 234 z m 602 59 l 676 59 l 676 0 l 429 0 l 429 66 q 407 25 370 6 q 333 -14 278 -14 q 167 -14 104 59 q 41 132 41 260 q 41 388 104 460 q 167 533 278 533 q 333 533 370 513 q 407 494 429 453 l 429 701 l 355 701 l 355 760 l 602 760 z"},"1":{"x_min":0,"x_max":696,"ha":696,"o":"m 137 0 l 137 59 l 274 59 l 274 649 l 122 559 l 122 632 l 305 742 l 459 742 l 459 59 l 596 59 l 596 0 z"},"5":{"x_min":0,"x_max":696,"ha":696,"o":"m 564 729 l 564 601 l 174 601 l 174 441 q 206 466 246 479 q 285 491 329 491 q 464 491 542 423 q 620 355 620 238 q 620 119 542 52 q 464 -14 323 -14 q 264 -14 205 -4 q 146 5 82 26 l 82 185 l 141 185 q 144 113 178 78 q 212 43 280 43 q 352 43 386 91 q 421 139 421 238 q 421 335 387 383 q 353 431 284 431 q 247 431 218 416 q 189 400 164 368 l 115 368 l 115 729 z"}}}
